<svg width="306" height="116" viewBox="0 0 306 116" fill="none" xmlns="http://www.w3.org/2000/svg">
<path fill-rule="evenodd" clip-rule="evenodd" d="M0 0H103.5V81H75V116H0V0ZM10 10V106H33V35.5H93.5V10H10ZM93.5 45.5H43V106H65V71H93.5V45.5Z" fill="#58009F"/>
<path d="M143.5 16.4631H197.395V28.7614H157.366V53.2374H190.402V65.174H157.366V100.863H143.5V16.4631Z" fill="#141414"/>
<path d="M214.053 16.7043C215.5 18.1511 216.344 20.0803 216.344 22.2506C216.344 24.5414 215.5 26.4706 214.053 27.9174C212.486 29.3643 210.557 30.0877 208.386 30.0877C206.095 30.0877 204.166 29.3643 202.719 27.9174C201.152 26.4706 200.429 24.5414 200.429 22.2506C200.429 20.0803 201.152 18.1511 202.719 16.7043C204.166 15.2574 206.095 14.4134 208.386 14.4134C210.557 14.4134 212.486 15.2574 214.053 16.7043ZM201.875 39.1306H214.897V100.863H201.875V39.1306Z" fill="#141414"/>
<path d="M270.947 42.2654C275.287 44.7974 278.784 48.4146 281.316 53.1168C283.727 57.9397 285.054 63.486 285.054 69.9968C285.054 76.2666 283.727 81.6923 281.316 86.5151C278.784 91.338 275.287 94.9551 270.947 97.6077C266.486 100.26 261.422 101.587 255.875 101.587C251.294 101.587 247.315 100.743 243.939 99.0546C240.563 97.3666 237.79 94.9551 235.74 91.9408L234.173 100.863H222.839V16.4631H235.861V48.294C240.683 41.7831 247.435 38.4071 255.875 38.4071C261.422 38.4071 266.486 39.7334 270.947 42.2654ZM266.727 84.9477C270.103 81.0894 271.791 76.146 271.791 69.9968C271.791 63.9683 270.103 59.1454 266.727 55.2871C263.351 51.4288 259.01 49.4997 253.705 49.4997C248.279 49.4997 243.939 51.4288 240.683 55.1666C237.307 59.0249 235.74 63.8477 235.74 69.8763C235.74 76.0254 237.307 80.9688 240.683 84.8271C243.939 88.6854 248.279 90.6146 253.705 90.6146C259.01 90.6146 263.351 88.806 266.727 84.9477Z" fill="#141414"/>
<path d="M302.843 16.7043C304.29 18.1511 305.134 20.0803 305.134 22.2506C305.134 24.5414 304.29 26.4706 302.843 27.9174C301.275 29.3643 299.346 30.0877 297.176 30.0877C294.885 30.0877 292.956 29.3643 291.509 27.9174C289.942 26.4706 289.218 24.5414 289.218 22.2506C289.218 20.0803 289.942 18.1511 291.509 16.7043C292.956 15.2574 294.885 14.4134 297.176 14.4134C299.346 14.4134 301.275 15.2574 302.843 16.7043ZM290.665 39.1306H303.687V100.863H290.665V39.1306Z" fill="#141414"/>
</svg>
